<svg width="171" height="171" viewBox="0 0 171 171" fill="none" xmlns="http://www.w3.org/2000/svg">
<rect width="171" height="171" rx="30" fill="#73DFE0"/>
<path d="M140.6 146.735L31.125 146.735L31.125 136.005L140.6 136.005L140.6 146.735ZM149.88 46.105L20.83 46.105L20.83 35.375L149.88 35.375L149.88 46.105ZM98.26 142.965L86.08 142.965C87.53 134.652 89.125 125.807 90.865 116.43C92.605 107.053 94.3933 97.6767 96.23 88.3C98.0667 78.9233 99.9033 70.03 101.74 61.62C103.577 53.21 105.268 45.8633 106.815 39.58L118.995 39.58C117.255 46.0567 115.467 53.5483 113.63 62.055C111.697 70.5617 109.812 79.5033 107.975 88.88C106.042 98.2567 104.253 107.585 102.61 116.865C100.87 126.145 99.42 134.845 98.26 142.965ZM134.945 103.96L44.9 103.96L44.9 41.175L56.065 41.175L56.065 93.375L134.945 93.375L134.945 103.96Z" fill="#1E1E1E"/>
</svg>
